PathFileType	4	(X/Y/Z)	C:/Users/opensim2020/Desktop/walking_exp_matlab/subject02_walking07_straight_01.trc																																																																																																																																																				
DataRate	CameraRate	NumFrames	NumMarkers	Units	OrigDataRate	OrigDataStartFrame	OrigNumFrames																																																																																																																																																
100	100	5	50	mm	100	758	176																																																																																																																																																
Frame#	Time	LFHD			RFHD			LBHD			RBHD			C7			T10			CLAV			STRN			RBAK			LSHO			LUPA			LELB			LFRM			LWRA			LWRB			LFIN			RSHO			RUPA			RELB			RFRM			RWRA			RWRB			RFIN			LASI			RASI			LPSI			RPSI			LTHI			LKNE			LTIB			LANK			LHEE			LTOE			RTHI			RKNE			RTIB			RANK			RHEE			RTOE			*39			*40			*41			*42			*43			*44			*45			*46			*47			*48			*49		
		X1	Y1	Z1	X2	Y2	Z2	X3	Y3	Z3	X4	Y4	Z4	X5	Y5	Z5	X6	Y6	Z6	X7	Y7	Z7	X8	Y8	Z8	X9	Y9	Z9	X10	Y10	Z10	X11	Y11	Z11	X12	Y12	Z12	X13	Y13	Z13	X14	Y14	Z14	X15	Y15	Z15	X16	Y16	Z16	X17	Y17	Z17	X18	Y18	Z18	X19	Y19	Z19	X20	Y20	Z20	X21	Y21	Z21	X22	Y22	Z22	X23	Y23	Z23	X24	Y24	Z24	X25	Y25	Z25	X26	Y26	Z26	X27	Y27	Z27	X28	Y28	Z28	X29	Y29	Z29	X30	Y30	Z30	X31	Y31	Z31	X32	Y32	Z32	X33	Y33	Z33	X34	Y34	Z34	X35	Y35	Z35	X36	Y36	Z36	X37	Y37	Z37	X38	Y38	Z38	X39	Y39	Z39	X40	Y40	Z40	X41	Y41	Z41	X42	Y42	Z42	X43	Y43	Z43	X44	Y44	Z44	X45	Y45	Z45	X46	Y46	Z46	X47	Y47	Z47	X48	Y48	Z48	X49	Y49	Z49	X50	Y50	Z50
																																																																																																																																																							
111	1.1	21.83826	1754.59082	1319.50012	15.39876	1740.27295	1463.22375	-89.64758	1653.36292	1305.32678	-107.64358	1635.33911	1447.47375	-132.45377	1527.97717	1379.55579	-198.44171	1258.1366	1388.50354	4.80603	1457.80029	1375.94958	48.02916	1281.6593	1388.17468	-199.75258	1361.57703	1445.85205	-51.28696	1502.96472	1206.37378	-8.95613	1317.22681	1112.33716	50.16165	1186.65259	1090.94348	138.78404	1085.02222	1095.80225	247.44077	1022.21643	1154.05469	220.02249	995.03589	1112.70923	276.97552	962.10071	1118.47729	-58.18678	1496.52771	1569.23132	-103.05648	1311.01624	1656.07019	-99.39524	1164.49365	1670.91418	-84.38834	1045.20789	1694.68201	-55.8231	912.36932	1677.64429	-100.39698	916.41736	1713.09888	-72.32225	849.08136	1715.3136	23.21399	983.39197	1263.49451	23.46133	981.43286	1519.39526	-185.58516	1034.86206	1344.14807	-191.14828	1035.93921	1458.59204	-63.00309	672.89465	1235.0144	-113.34473	475.20135	1275.43445	-187.39017	293.96762	1286.21155	-200.40424	71.86797	1336.23242	-238.46014	47.32885	1387.56201	-43.99485	31.50524	1331.73083	6.88322	689.77844	1616.44104	74.83106	490.99414	1591.09729	54.34594	304.72772	1590.04883	70.53994	111.39127	1558.24207	64.87293	51.86675	1496.52441	215.8474	77.0692	1614.81567	-97.84488	1798.47717	1399.67529	2845.17334	1033.77783	-3360.2854	NaN	NaN	NaN	NaN	NaN	NaN	NaN	NaN	NaN	NaN	NaN	NaN	NaN	NaN	NaN	NaN	NaN	NaN	NaN	NaN	NaN	NaN	NaN	NaN	NaN	NaN	NaN
112	1.11	30.83087	1754.09619	1319.69165	24.14202	1739.36938	1463.20398	-80.5562	1652.65735	1305.30383	-98.53398	1634.18689	1447.25073	-123.37862	1527.26331	1379.35522	-189.68828	1257.56921	1388.82324	13.74809	1456.94556	1375.71069	56.83297	1280.7915	1387.90796	-190.90123	1360.98621	1445.70532	-42.3212	1502.35498	1206.29236	1.51519	1317.69324	1112.14563	62.37585	1187.69861	1090.47668	152.19473	1087.63135	1095.30127	261.85303	1026.12732	1153.61108	234.8192	998.47437	1112.35583	292.18918	966.67346	1117.70654	-49.55409	1495.56628	1568.72473	-95.78498	1310.38794	1655.35376	-92.89491	1164.0658	1670.56848	-79.08439	1044.80176	1694.70398	-51.81892	911.46747	1677.48303	-96.23216	916.10638	1712.79297	-68.77856	848.39716	1715.35437	31.04675	982.57104	1263.4281	32.45407	980.43488	1519.31653	-177.32858	1034.43481	1344.82471	-182.158	1035.40845	1459.28259	-57.51719	672.23492	1234.8418	-109.29902	475.02478	1275.51794	-185.05061	294.54117	1286.36804	-200.06923	72.52557	1336.41736	-238.09982	48.30984	1387.9447	-43.90898	31.46969	1331.49438	16.16503	688.57471	1615.6853	86.08951	490.36139	1588.44153	73.16536	303.48099	1589.40369	96.86636	110.78352	1559.68188	92.49485	50.42806	1498.04126	244.31476	81.94262	1613.96045	-88.97922	1797.61401	1399.84106	2845.17822	1034.0376	-3360.26147	NaN	NaN	NaN	NaN	NaN	NaN	NaN	NaN	NaN	NaN	NaN	NaN	NaN	NaN	NaN	NaN	NaN	NaN	NaN	NaN	NaN	NaN	NaN	NaN	NaN	NaN	NaN
113	1.12	39.82301	1753.42749	1319.92749	33.08645	1738.4248	1463.45117	-71.37473	1651.85461	1305.19421	-89.52683	1633.19507	1447.25525	-114.30781	1526.40442	1379.27258	-180.75183	1256.82056	1389.17969	22.77054	1456.06592	1375.63293	65.70765	1279.87671	1387.74707	-182.0186	1360.36682	1445.63086	-33.27295	1501.66406	1206.26172	12.14429	1317.44958	1112.13684	74.08908	1188.46118	1090.08301	165.22304	1089.53528	1094.92163	275.73505	1029.62219	1153.25391	249.02357	1001.55664	1111.94373	306.98343	970.74689	1117.30725	-40.43206	1494.74854	1568.93982	-88.00246	1309.95703	1655.28613	-86.39892	1163.50183	1670.12158	-73.56142	1044.10669	1694.40503	-47.18072	910.67627	1677.67114	-91.76418	915.67468	1712.60681	-65.0759	847.56708	1715.39465	39.10383	981.76093	1263.3999	41.5952	979.39526	1519.2301	-169.02397	1033.92859	1345.63477	-173.07977	1034.82166	1460.10022	-52.19559	671.81226	1234.7196	-105.28429	475.04044	1275.56433	-182.68468	295.09164	1286.50635	-199.70476	73.15883	1336.59668	-237.77019	48.97564	1388.27234	-43.86735	31.36978	1331.23975	25.17132	687.05005	1614.71558	97.20495	489.6525	1585.89539	91.62439	302.55554	1588.84314	122.35307	110.04551	1560.31116	119.34325	49.76508	1499.84094	272.0946	87.19733	1612.81152	-80.10498	1796.76465	1399.97839	2845.97388	1034.00586	-3357.04468	NaN	NaN	NaN	NaN	NaN	NaN	NaN	NaN	NaN	NaN	NaN	NaN	NaN	NaN	NaN	NaN	NaN	NaN	NaN	NaN	NaN	NaN	NaN	NaN	NaN	NaN	NaN
114	1.13	48.80415	1752.75586	1320.07715	42.08194	1737.48315	1463.75916	-62.27486	1651.12695	1305.48975	-80.59151	1632.01282	1446.95605	-105.25908	1525.67188	1379.32996	-171.79446	1256.02197	1389.64185	31.82518	1455.12805	1375.63953	74.63132	1278.93701	1387.76868	-173.01552	1359.66541	1445.66113	-24.25458	1500.8783	1206.37622	22.07165	1317.32068	1111.92896	85.51212	1188.89819	1089.88159	178.3044	1090.73254	1094.92139	289.12689	1032.59583	1152.84644	262.80182	1004.18951	1111.66235	321.01462	974.1748	1116.77441	-31.12988	1493.86047	1569.1084	-80.21963	1309.35132	1655.08203	-79.65775	1162.86682	1669.7146	-67.98975	1043.297	1693.99683	-42.25418	909.76971	1677.87732	-87.06484	915.16113	1712.43481	-60.75401	847.0119	1715.58386	47.26703	980.94769	1263.38855	50.94091	978.24402	1519.2063	-160.52596	1033.29651	1346.55518	-163.82079	1034.06506	1461.02759	-46.66903	671.25195	1234.60938	-101.16043	474.87326	1275.59998	-180.4061	295.88443	1286.71472	-199.38559	73.79518	1336.65991	-237.50841	49.90607	1388.48816	-43.96939	31.43472	1330.98267	34.05429	685.35956	1613.64539	108.39436	488.96286	1583.03003	109.55202	301.88638	1588.40747	147.54446	110.52012	1561.68933	145.23654	49.52113	1501.52905	298.88699	92.48801	1611.17566	-71.17039	1795.65662	1400.42322	2845.10718	1034.01453	-3360.21094	NaN	NaN	NaN	NaN	NaN	NaN	NaN	NaN	NaN	NaN	NaN	NaN	NaN	NaN	NaN	NaN	NaN	NaN	NaN	NaN	NaN	NaN	NaN	NaN	NaN	NaN	NaN
115	1.14	57.97902	1751.90527	1320.63245	51.14148	1736.46924	1464.13245	-53.08218	1650.24805	1305.71338	-71.43651	1631.01794	1447.10925	-96.11389	1524.72864	1379.36731	-162.72894	1255.1748	1390.22864	40.90703	1454.15417	1375.7655	83.6413	1277.92273	1387.88831	-163.99498	1358.97852	1445.78796	-15.17013	1500.01685	1206.55554	32.17194	1316.92639	1112.04102	96.53441	1189.12476	1089.62854	190.23003	1092.11865	1094.46863	302.03223	1035.10181	1152.49121	275.84381	1006.41449	1111.40784	334.5545	977.04352	1116.29565	-22.25475	1492.93445	1569.13635	-72.36034	1308.73572	1655.01135	-72.77676	1162.21204	1669.49255	-61.87338	1042.70972	1694.11292	-37.08755	908.81104	1677.93738	-82.31918	914.43909	1712.21973	-56.28315	846.16101	1715.5271	55.40398	980.08459	1263.32556	60.32626	976.92499	1519.00903	-151.92628	1032.56177	1347.5188	-154.4373	1033.25012	1462.09998	-41.17527	670.84967	1234.48035	-96.91535	474.79059	1275.63904	-178.07732	296.61414	1286.87	-199.04372	74.51356	1336.6698	-237.17603	51.03664	1388.69055	-43.85708	31.39154	1330.72559	43.01361	683.57214	1612.47937	119.31818	488.26184	1580.729	127.11838	301.52234	1588.0426	171.5302	110.91061	1562.44397	170.1523	49.81502	1503.09131	325.0759	98.24741	1609.15247	-62.12077	1795.00244	1401.2439	2845.10962	1034.16492	-3360.30176	NaN	NaN	NaN	NaN	NaN	NaN	NaN	NaN	NaN	NaN	NaN	NaN	NaN	NaN	NaN	NaN	NaN	NaN	NaN	NaN	NaN	NaN	NaN	NaN	NaN	NaN	NaN
